<svg viewBox="0 0 512 512" xmlns="http://www.w3.org/2000/svg" fill="#656565">
    <path d="M116 196c-5.52 0-10 4.48-10 10s4.48 10 10 10 10-4.48 10-10-4.48-10-10-10zM116 329H76c-5.523 0-10 4.478-10 10v40c0 5.522 4.477 10 10 10h40c5.523 0 10-4.478 10-10v-40c0-5.522-4.477-10-10-10zm-10 40H86v-20h20v20zM116 409H76c-5.523 0-10 4.478-10 10v40c0 5.522 4.477 10 10 10h40c5.523 0 10-4.478 10-10v-40c0-5.522-4.477-10-10-10zm-10 40H86v-20h20v20zM196 329h-40c-5.523 0-10 4.478-10 10v40c0 5.522 4.477 10 10 10h40c5.523 0 10-4.478 10-10v-40c0-5.522-4.477-10-10-10zm-10 40h-20v-20h20v20zM196 409h-40c-5.523 0-10 4.478-10 10v40c0 5.522 4.477 10 10 10h40c5.523 0 10-4.478 10-10v-40c0-5.522-4.477-10-10-10zm-10 40h-20v-20h20v20zM276 329h-40c-5.523 0-10 4.478-10 10v40c0 5.522 4.477 10 10 10h40c5.522 0 10-4.478 10-10v-40c0-5.522-4.478-10-10-10zm-10 40h-20v-20h20v20zM276 409h-40c-5.523 0-10 4.478-10 10v40c0 5.522 4.477 10 10 10h40c5.522 0 10-4.478 10-10v-40c0-5.522-4.478-10-10-10zm-10 40h-20v-20h20v20z"/>
    <path d="M276 146H76c-5.523 0-10 4.478-10 10v100c0 5.522 4.477 10 10 10h200c5.522 0 10-4.478 10-10V156c0-5.522-4.478-10-10-10zm-10 100H86v-80h180v80z"/>
    <path d="M236 196h-80c-5.523 0-10 4.478-10 10s4.477 10 10 10h80c5.522 0 10-4.478 10-10s-4.478-10-10-10zM216 43h-80c-5.523 0-10 4.478-10 10s4.477 10 10 10h80c5.523 0 10-4.478 10-10s-4.477-10-10-10z"/>
    <path d="M456 146H326V93c0-27.57-22.43-50-50-50h-10V10c0-5.522-4.478-10-10-10H96c-5.523 0-10 4.478-10 10v33H76c-27.57 0-50 22.43-50 50v369c0 27.57 22.43 50 50 50h200c27.57 0 50-22.43 50-50v-93h130c16.542 0 30-13.458 30-30V176c0-16.542-13.458-30-30-30zM106 20h140v86H106V20zm200 442c0 16.542-13.458 30-30 30H76c-16.542 0-30-13.458-30-30V305.17h260V462zm0-176.83H46V93c0-16.542 13.458-30 30-30h10v43H76c-5.523 0-10 4.478-10 10s4.477 10 10 10h200c5.522 0 10-4.478 10-10s-4.478-10-10-10h-10V63h10c16.542 0 30 13.458 30 30v192.17zM466 339c0 5.514-4.486 10-10 10H326V246h140v93zm0-113H326v-20h140v20zm0-40H326v-20h130c5.514 0 10 4.486 10 10v10z"/>
    <path d="M416 266c-7.678 0-14.688 2.902-20 7.664-5.312-4.761-12.322-7.664-20-7.664-16.542 0-30 13.458-30 30s13.458 30 30 30c7.678 0 14.688-2.902 20-7.664 5.312 4.761 12.322 7.664 20 7.664 16.542 0 30-13.458 30-30s-13.458-30-30-30zm-40 40c-5.514 0-10-4.486-10-10s4.486-10 10-10 10 4.486 10 10-4.486 10-10 10zm40 0c-5.514 0-10-4.486-10-10s4.486-10 10-10 10 4.486 10 10-4.486 10-10 10z"/>
</svg>