<svg xmlns="http://www.w3.org/2000/svg" id="Слой_1" x="0" y="0" viewBox="-338 236 336 89" xml:space="preserve">
  <style>
    .st0{fill:#0c1e4c}
  </style>
    <path class="st0" d="M-321.3 249.1V315c0 3.6-2.9 6.5-6.5 6.5s-6.5-2.9-6.5-6.5v-65.8c0-3.6 2.9-6.5 6.5-6.5s6.5 2.8 6.5 6.4zm-1.8 65.9v-65.8c0-2.7-2-4.7-4.7-4.7s-4.7 2-4.7 4.7V315c0 2.7 2 4.7 4.7 4.7s4.7-2 4.7-4.7zM-301 243.5v77.1c0 .5-.5.9-.9.9-.5 0-.9-.5-.9-.9l-9.5-64.8v64.8c0 .5-.5.9-.9.9-.5 0-.9-.5-.9-.9v-77.1c0-.5.5-.9.9-.9.5 0 .9.5.9.9l9.5 64.8v-64.8c0-.5.5-.9.9-.9s.9.4.9.9zM-280.7 318.8c0 1.5-1.2 2.7-2.7 2.7h-9.5c-.5 0-.9-.5-.9-.9 0-.5.5-.9.9-.9h9.5c.6 0 .9-.3.9-.9 0-.6-.3-.9-.9-.9h-9.5c-.5 0-.9-.5-.9-.9v-73.5c0-.5.5-.9.9-.9.5 0 .9.5.9.9v72.6h8.6c1.4 0 2.7 1.2 2.7 2.7zM-266.1 251.7v68.9c0 .5-.5.9-.9.9-.5 0-.9-.5-.9-.9v-68.9c-3.2-.3-5.6-3-5.6-5.8 0-.5.5-.9.9-.9.5 0 .9.5.9.9 0 2 2 4.1 4.7 4.1s4.7-2 4.7-4.1c0-.5.5-.9.9-.9.5 0 .9.5.9.9.1 2.8-2.4 5.5-5.6 5.8zm-3.6-6.4c0-1.5 1.2-2.7 2.7-2.7 1.5 0 2.7 1.2 2.7 2.7 0 1.5-1.2 2.7-2.7 2.7-1.4 0-2.7-1.3-2.7-2.7zm1.8 0c0 .5.5.9.9.9.5 0 .9-.5.9-.9 0-.5-.5-.9-.9-.9s-.9.4-.9.9zM-240.1 243.5v77.1c0 .5-.5.9-.9.9-.5 0-.9-.5-.9-.9l-9.5-64.8v64.8c0 .5-.5.9-.9.9-.5 0-.9-.5-.9-.9v-77.1c0-.5.5-.9.9-.9.5 0 .9.5.9.9l9.5 64.8v-64.8c0-.5.5-.9.9-.9s.9.4.9.9zM-29.6 243.5v77.1c0 .5-.5.9-.9.9-.5 0-.9-.5-.9-.9l-9.5-64.8v64.8c0 .5-.5.9-.9.9-.5 0-.9-.5-.9-.9v-77.1c0-.5.5-.9.9-.9.5 0 .9.5.9.9l9.5 64.8v-64.8c0-.5.5-.9.9-.9s.9.4.9.9zM-219.8 320.6c0 .5-.5.9-.9.9H-232c-.5 0-.9-.5-.9-.9v-77.1c0-.5.5-.9.9-.9h11.3c.5 0 .9.5.9.9 0 .5-.5.9-.9.9h-10.4v75.3h10.4c.4 0 .9.4.9.9zm0-54.2c0 1.5-1.2 2.7-2.7 2.7h-5.9c-.5 0-.9-.5-.9-.9 0-.5.5-.9.9-.9h5.9c.6 0 .9-.3.9-.9 0-.6-.3-.9-.9-.9h-5.9c-.5 0-.9-.5-.9-.9 0-.5.5-.9.9-.9h5.9c1.4 0 2.7 1.2 2.7 2.7zM-203.2 282.3c0 .5-.5.9-.9.9h-11.3c-.5 0-.9-.5-.9-.9 0-.5.5-.9.9-.9h11.3c.5 0 .9.4.9.9zM-185.8 320.6c0 .5-.5.9-.9.9h-12.6c-.5 0-.9-.5-.9-.9 0-.5.5-.9.9-.9h12.6c.5 0 .9.4.9.9zm-13.7-5.6c0-.3 0-.7.1-1l5.5-70.5c0-.5.5-.9.9-.9.5 0 .9.5.9.9l5.5 70.5c.1.3.1.7.1 1 0 .5-.5.9-.9.9s-.9-.5-.9-.9l-.1-.9c-.3-2.3-2-3.8-4.6-3.8-2.4 0-4.3 1.6-4.6 3.9l-.1.8c0 .5-.5.9-.9.9-.5 0-.9-.5-.9-.9zm2.1-4.9c1.2-1 2.7-1.7 4.4-1.7 1.7 0 3.2.7 4.4 1.7l-4.4-55.2-4.4 55.2zM-165.5 320.6c0 .5-.5.9-.9.9-7.2 0-12.9-6-12.9-13.1v-52.7c0-7.1 5.6-13.1 12.9-13.1.5 0 .9.5.9.9 0 .5-.5.9-.9.9-6.3 0-11 5.1-11 11.3v52.7c0 5.8 4.7 11.3 11 11.3.4 0 .9.4.9.9zM-145.2 320.6c0 .5-.5.9-.9.9h-12.6c-.5 0-.9-.5-.9-.9 0-.5.5-.9.9-.9h12.6c.4 0 .9.4.9.9zM-159 315c0-.3 0-.7.1-1l5.5-70.5c0-.5.5-.9.9-.9.5 0 .9.5.9.9l5.5 70.5c.1.3.1.7.1 1 0 .5-.5.9-.9.9s-.9-.5-.9-.9l-.1-.9c-.3-2.3-2-3.8-4.6-3.8-2.4 0-4.3 1.6-4.6 3.9l-.1.8c0 .5-.5.9-.9.9s-.9-.5-.9-.9zm2.2-4.9c1.2-1 2.7-1.7 4.4-1.7 1.7 0 3.2.7 4.4 1.7l-4.4-55.2-4.4 55.2zM-125.6 255.7V320.6c0 .5-.5.9-.9.9h-12c-.5 0-.9-.5-.9-.9 0-.5.5-.9.9-.9h11v-64c0-5.9-4.3-10.8-10.1-11.3v71.7h7.4c.5 0 .9.5.9.9 0 .5-.5.9-.9.9h-8.3c-.5 0-.9-.5-.9-.9v-73.5c0-.5.5-.9.9-.9 7.3 0 12.9 6 12.9 13.1zM-105.3 320.6c0 .5-.5.9-.9.9h-11.3c-.5 0-.9-.5-.9-.9v-77.1c0-.5.5-.9.9-.9h11.3c.5 0 .9.5.9.9 0 .5-.5.9-.9.9h-10.4v75.3h10.4c.5 0 .9.4.9.9zm0-54.2c0 1.5-1.2 2.7-2.7 2.7h-5.9c-.5 0-.9-.5-.9-.9 0-.5.5-.9.9-.9h5.9c.6 0 .9-.3.9-.9 0-.6-.3-.9-.9-.9h-5.9c-.5 0-.9-.5-.9-.9 0-.5.5-.9.9-.9h5.9c1.5 0 2.7 1.2 2.7 2.7zM-85 243.5v77.1c0 .5-.5.9-.9.9s-.9-.5-.9-.9v-52.4l-3.8 52.4c0 .5-.5.9-.9.9-.5 0-.9-.5-.9-.9l-3.8-52.4v52.4c0 .5-.5.9-.9.9-.5 0-.9-.5-.9-.9v-77.1c0-.5.5-.9.9-.9.5 0 .9.5.9.9l4.7 64.8 4.7-64.8c0-.5.5-.9.9-.9s.9.4.9.9zM-64.7 243.5v32.4c0 3.3-2.5 6-5.6 6.3v38.4c0 .5-.5.9-.9.9-.5 0-.9-.5-.9-.9v-38.4c-3.2-.3-5.5-3-5.6-6.2v-32.5c0-.5.5-.9.9-.9.5 0 .9.5.9.9v32.2c0 2.7 2 4.7 4.7 4.7s4.7-2 4.7-4.7v-32.2c0-.5.5-.9.9-.9s.9.4.9.9z"/>
    <g>
    <path class="st0" d="M-5 248.6v72c0 .5-.5.9-.9.9-.5 0-.9-.5-.9-.9v-72c0-2.7-1.4-4.8-4.1-4.8-.5 0-.9-.5-.9-.9 0-.5.5-.9.9-.9 3.6 0 5.9 2.9 5.9 6.6z"/>
  </g>
    <g>
    <path class="st0" d="M-17.9 245.2c.6 2.2.1 4.7-1.6 6.1-1.5 1.1-4 1.2-5.2-.4-.6-.6-.8-1.4-.8-2.3-.2-2.1.6-4.4 2.4-5.5 2.2-1.3 4.7-.2 5.2 2.1zm2.1 8.6c-.7 1.3-2.4 2.1-3.7 2.6-1.4.6-2.9 1.2-4.4 1.2-.7 0-.8-.7-.3-1h.1c1.4-.4 2.7-.8 4-1.4 1.3-.6 2.5-1.6 3.8-2 .5-.3.9.2.5.6zm-4-9.1c-.6-.7-1.7-.7-2.5-.2-1.7 1-1.6 3.1-1.8 4.9.2.5.5 1 1.1 1.2 1.9.8 3.4-1 3.7-2.7.2-1.1.1-2.4-.5-3.2z"/>
  </g>
</svg>