<svg xmlns="http://www.w3.org/2000/svg" width="55.125" height="55.125" fill="#556fb7">
    <path d="M4.167 47.007h46.792a4.167 4.167 0 004.167-4.167V12.285a4.167 4.167 0 00-4.167-4.167H4.167A4.167 4.167 0 000 12.285V42.84a4.167 4.167 0 004.167 4.167zm26.604-2.925h-6.418v-3.965h6.418v3.965zm15.294-32.944h6.418v3.965h-6.418v-3.965zm-.19 28.979h6.419v3.965h-6.419v-3.965zM35.303 11.138h6.419v3.965h-6.419v-3.965zm-.189 28.979h6.419v3.965h-6.419v-3.965zM24.543 11.138h6.418v3.965h-6.418v-3.965zm-1.8 9.579l9.639 4.82c2.237 1.119 2.237 2.933 0 4.051l-9.639 4.821c-2.237 1.118-4.052-.003-4.052-2.506v-8.681c-.001-2.502 1.814-3.623 4.052-2.505zm-8.961-9.579h6.419v3.965h-6.419v-3.965zm-.189 28.979h6.418v3.965h-6.418v-3.965zM3.021 11.138H9.44v3.965H3.021v-3.965zm-.189 28.979h6.419v3.965H2.832v-3.965z"/>
</svg>